<svg xmlns="http://www.w3.org/2000/svg" width="224" height="168" viewBox="0 0 224 168">
  <defs>
    <style>
      .a{fill:#f2e1ff}.b{fill:#fff}.c,.e{fill:none}.c{stroke:#3a36e4;stroke-linecap:round;stroke-linejoin:round;stroke-width:2px}.d{fill:#e2bfff}
    </style>
  </defs>
  <path class="a" d="M63.3 11.8C20.9 29.5-16.8 90.2 12 124.6c26.5 31.7 59.7-.7 77.3 23.3 16.3 22.3 60.2 28.9 77-9 12.4-27.9 26.6-17.8 48.1-44 21-25.3 1.6-66.3-28.5-69.4-30.5-3.2-43.1 22.2-55-.9-17-33-48.1-20.9-67.6-12.8z"/>
  <path class="b" d="M76.9 43.5h87.2v62.3H76.9z"/>
  <path class="c" d="M76.9 43.5h87.2v62.3H76.9z"/>
  <path class="d" d="M79.2 80.5L97 63a6.1 6.1 0 018.7.3L122 81a6.1 6.1 0 008.5.6l11.4-9.7a6.1 6.1 0 018.2.3l12.2 12.1a6.2 6.2 0 011.9 4.5v16.6a.4.4 0 01-.4.3H77.2V85a6.2 6.2 0 012-4.4z"/>
  <path class="a" d="M164.2 53.9c-1.4-3-4.3-5.1-9-4.4-4.2.7-6 4.5-6.2 7.4-4.2-4.4-9.7-.5-10.7 3.6a6.5 6.5 0 00.7 5h25.2s.5-10.4 0-11.6z"/>
  <circle class="d" cx="126.4" cy="66.8" r="7.9"/>
  <path class="a" d="M105.6 82.6s.5-4.7-2.2-8c-2.3-2.8-8.6-4.2-11.9.3-.2-4.4-3.2-9.3-10-8.2-4 .7-5.9 4.5-6 7.4-4.2-4.4-9.8-.5-10.8 3.6a6.5 6.5 0 00.7 5z"/>
  <path class="e" d="M76.9 43.5h87.2v62.3H76.9z"/>
  <path class="c" d="M76.9 43.5h87.2v62.3H76.9z"/>
  <path class="b" d="M68.7 52.4h87.2v62.3H68.7z"/>
  <path class="c" d="M68.7 52.4h87.2v62.3H68.7z"/>
  <path class="d" d="M71 89.4l17.8-17.3a6.1 6.1 0 018.8.2l16.2 17.8a6.1 6.1 0 008.5.5l11.4-9.7a6.1 6.1 0 018.2.4l12.2 12a6.2 6.2 0 011.9 4.5v16.6a.4.4 0 01-.4.4H69v-21a6.2 6.2 0 012-4.4z"/>
  <path class="a" d="M156.2 63.4c-1.3-3.2-4.2-5.7-9.3-5-4 .7-6 4.5-6 7.5-4.3-4.5-9.8-.6-10.8 3.5a6.5 6.5 0 00.7 5H156s.6-10 .2-11z"/>
  <circle class="d" cx="118.2" cy="75.7" r="7.9"/>
  <path class="a" d="M97.4 91.6s.5-4.8-2.2-8c-2.3-2.9-8.7-4.3-11.9.2-.2-4.4-3.2-9.2-10-8.1-4 .6-6 4.4-6 7.4-4.2-4.5-9.8-.6-10.8 3.5a6.5 6.5 0 00.7 5z"/>
  <path class="e" d="M68.7 52.4h87.2v62.3H68.7z"/>
  <path class="c" d="M68.7 52.4h87.2v62.3H68.7z"/>
  <path class="b" d="M60.7 61.4h87.2v62.3H60.7z"/>
  <path class="c" d="M60.7 61.4h87.2v62.3H60.7z"/>
  <path class="d" d="M63 98.3L80.7 81a6.1 6.1 0 018.8.3L105.7 99a6.1 6.1 0 008.5.6l11.4-9.7a6.1 6.1 0 018.3.3l12.2 12.1a6.2 6.2 0 011.8 4.4v16.6a.4.4 0 01-.3.4H60.9l.1-21a6.2 6.2 0 012-4.4z"/>
  <path class="a" d="M148.2 72.4c-1.3-3.2-4.2-5.8-9.3-5-4.1.7-6 4.5-6.1 7.4-4.2-4.4-9.8-.6-10.7 3.6a6.5 6.5 0 00.7 5h24.7s1-10 .7-11z"/>
  <circle class="d" cx="110.1" cy="84.6" r="7.9"/>
  <path class="a" d="M89.3 100.5s.6-4.7-2.1-8c-2.4-2.8-8.7-4.2-12 .3-.2-4.4-3.1-9.3-10-8.2-4 .7-5.9 4.5-6 7.4-4.2-4.4-9.8-.6-10.7 3.6a6.5 6.5 0 00.7 5z"/>
  <path class="e" d="M60.7 61.4h87.2v62.3H60.7z"/>
  <path class="c" d="M60.7 61.4h87.2v62.3H60.7z"/>
  <circle cx="60.1" cy="118.4" r="13.6" stroke="#3a36e4" stroke-linecap="round" stroke-linejoin="round" stroke-width="2" fill="#fff"/>
  <path class="c" d="M60.1 112.4v11.9M54.2 118.4h11.9"/>
</svg>
