<svg xmlns="http://www.w3.org/2000/svg" width="224" height="168" viewBox="0 0 224 168">
  <defs>
    <style>
      .b,.e,.f{fill:#ffd1c7;stroke:#3a36e4;stroke-linejoin:round;stroke-width:2px}.e,.f{fill:#fff;stroke-linecap:round}.f{fill:none}
    </style>
  </defs>
  <path d="M209.53 64.5c1.45-31.14-24.43-48.83-59.6-28.39-14.18 8.24-11.5-1.14-12.58-9.8-9.43-74.9-175.61 52.49-119.19 85.25 15.76 3.54 21.9 13.5 22.25 25.1.23 25.24 31.4 36.77 50 21.31 6.77-2.4 12.58-15.2 19.31-12.42 10.02 13.3 35.77 14.84 49.5 5.97 27.81-17.97 47.9-35.3 50.3-87.01z" fill="#ffe9e4"/>
  <path class="b" d="M73.56 126.83H28.18V81.45l45.38 45.38zM95.1 36.27l-2.51 2.52-2.52-2.52a13.52 13.52 0 00-19.12 19.12l2.52 2.51L92.6 73.36l19.12-15.46 2.52-2.52A13.52 13.52 0 1095.1 36.27z"/>
  <path d="M165.64 113.86c-8.29 0-14.83 2.05-19.49 6.03-5.5 4.68-8.36 12.04-8.36 21.82 0-9.58-2.75-16.82-8.02-21.52-4.68-4.17-11.34-6.33-19.84-6.33 9.04 0 16-2.45 20.7-7.15s7.16-11.67 7.16-20.7c0 9.45 2.67 16.63 7.81 21.33 4.7 4.29 11.42 6.52 20.04 6.52z" fill="#ffd1c7"/>
  <path d="M137.79 142.7a1 1 0 01-1-1c0-17.56-9.29-26.84-26.85-26.84a1 1 0 010-2c17.56 0 26.85-9.29 26.85-26.86a1 1 0 112 0c0 17.57 9.28 26.86 26.85 26.86a1 1 0 010 2c-17.57 0-26.85 9.28-26.85 26.85a1 1 0 01-1 1zm-18.57-28.84c9.89 2.33 16.24 8.68 18.57 18.56 2.33-9.88 8.68-16.23 18.56-18.56-9.88-2.33-16.23-8.68-18.56-18.57-2.33 9.89-8.68 16.24-18.57 18.57z" fill="#3a36e4"/>
  <path class="b" d="M204.42 26.04h-47.51V59.5h10.75v12.13l12.13-12.13h24.63V26.04z"/>
  <circle class="e" cx="103.29" cy="65.86" r="7.51"/>
  <path class="f" d="M103.29 63.15v5.41M100.59 65.86h5.4"/>
  <circle class="e" cx="53.81" cy="128.64" r="7.51"/>
  <path class="f" d="M53.81 125.94v5.4M51.11 128.64h5.41"/>
  <circle class="e" cx="145.3" cy="121.37" r="7.51"/>
  <path class="f" d="M145.3 118.66v5.41M142.59 121.37H148"/>
  <circle class="e" cx="191.37" cy="58.61" r="7.51"/>
  <path class="f" d="M191.37 55.91v5.4M188.66 58.61h5.41"/>
</svg>
