<svg xmlns="http://www.w3.org/2000/svg" width="336" height="252" viewBox="0 0 336 252">
  <defs>
    <style>
      .a{fill:#d2fffa}.b,.c{fill:#fff}.c{stroke:#3a36e4;stroke-width:2px;stroke-miterlimit:10}.g{fill:#3a36e4}
    </style>
  </defs>
  <path class="a" d="M103.3 30.2C42 55.7-20 134.3 21.6 184.2c38.4 45.8 84.7-12 110.2 22.8 23.6 32.2 68.2 37 113.1-2 33.5-29 38.4-26 69.6-63.7 30.4-36.7 16.6-91.8-27-96.3-44.2-4.7-55.6 33.3-72.8 0C190-2.7 131.5 18.5 103.3 30.2z"/>
  <path class="b" d="M199.2 125.4a5.6 5.6 0 01-5.5-6.3 21.2 21.2 0 014.4-10.7c5-6 18.3-9 25.2.5.5-9.2 6.8-19.5 21.2-17.2 8.6 1.4 12.5 9.4 12.8 15.6 8.9-9.4 20.7-1.2 22.7 7.6a15.3 15.3 0 01.2 6 5.5 5.5 0 01-5.5 4.5z"/>
  <path class="c" d="M217.2 83.3a44.2 44.2 0 10-11.3 61.4 44.2 44.2 0 0011.3-61.4z"/>
  <path fill="none" stroke-miterlimit="10" stroke="#3a36e4" stroke-width="2" d="M145.2 133.4l-20 13.8"/>
  <rect class="c" x="98.5" y="128.4" width="17.5" height="61.1" rx="8.6" transform="rotate(55.5 107.3 159)"/>
  <circle cx="180.9" cy="108.4" r="35.5" fill="#7bfff0" stroke-miterlimit="10" stroke="#3a36e4" stroke-width="2"/>
  <path d="M169.8 119.6a14.7 14.7 0 0125.2-3.8" stroke-linejoin="round" stroke-linecap="round" fill="none" stroke="#3a36e4" stroke-width="2"/>
  <circle class="g" cx="165.9" cy="104.3" r="1.5" transform="rotate(-86.5 166 104.3)"/>
  <circle class="g" cx="193.6" cy="100.1" r="1.5" transform="rotate(-86.5 193.6 100.1)"/>
  <circle class="a" cx="181.7" cy="81" r="3"/>
  <path d="M190.7 82.3a25.2 25.2 0 0117.2 32.6" stroke="#d2fffa" stroke-width="5" stroke-linecap="round" fill="none" stroke-miterlimit="10"/>
  <path class="b" d="M81.7 118.8a5.6 5.6 0 005.5-6.3 21.2 21.2 0 00-4.3-10.7c-5-6-18.4-9-25.3.6C57.1 93 51 82.8 36.5 85c-8.7 1.4-12.6 9.5-13 15.6C14.8 91.3 3 99.6 1 108.3a15.3 15.3 0 00-.2 6 5.5 5.5 0 005.5 4.5zM258.8 205.2a4.6 4.6 0 004.6-5.3 17.6 17.6 0 00-3.6-8.8c-4.2-5-15.3-7.5-21 .4-.4-7.6-5.6-16.2-17.5-14.3-7.2 1.2-10.4 7.9-10.7 13-7.4-7.8-17.1-1-18.8 6.3a12.7 12.7 0 00-.2 4.9 4.6 4.6 0 004.6 3.8zM164 81.2a4.2 4.2 0 004-4.7 15.9 15.9 0 00-3.2-8c-3.7-4.5-13.7-6.7-18.8.4-.4-6.9-5.1-14.6-15.9-12.8-6.4 1-9.3 7-9.6 11.6-6.6-7-15.4-.9-17 5.7a11.4 11.4 0 000 4.4 4.1 4.1 0 004 3.4z"/>
</svg>
